<svg width="40" height="40" viewBox="0 0 40 40" fill="none" xmlns="http://www.w3.org/2000/svg">
<path d="M30 7.46666C27.3479 4.81449 23.7508 3.32452 20 3.32452C16.2493 3.32452 12.6522 4.81449 10 7.46666C7.34788 10.1188 5.85791 13.7159 5.85791 17.4667C5.85791 21.2174 7.34788 24.8145 10 27.4667L18.7834 36.2667C18.9383 36.4229 19.1227 36.5469 19.3258 36.6315C19.5288 36.7161 19.7467 36.7597 19.9667 36.7597C20.1867 36.7597 20.4046 36.7161 20.6077 36.6315C20.8108 36.5469 20.9951 36.4229 21.15 36.2667L30 27.3833C32.6411 24.7422 34.1249 21.1601 34.1249 17.425C34.1249 13.6899 32.6411 10.1078 30 7.46666ZM27.6167 25L20 32.65L12.3834 25C10.8786 23.4939 9.85417 21.5754 9.43954 19.4871C9.0249 17.3989 9.23869 15.2346 10.0539 13.2678C10.8691 11.301 12.2491 9.62008 14.0194 8.43745C15.7898 7.25483 17.871 6.62363 20 6.62363C22.1291 6.62363 24.2103 7.25483 25.9807 8.43745C27.751 9.62008 29.131 11.301 29.9462 13.2678C30.7614 15.2346 30.9752 17.3989 30.5606 19.4871C30.1459 21.5754 29.1215 23.4939 27.6167 25ZM15 12.35C13.6546 13.6996 12.899 15.5276 12.899 17.4333C12.899 19.339 13.6546 21.167 15 22.5167C15.9996 23.518 17.2727 24.2018 18.6595 24.4823C20.0462 24.7629 21.485 24.6276 22.7952 24.0936C24.1054 23.5595 25.2287 22.6505 26.0242 21.4804C26.8197 20.3104 27.2519 18.9314 27.2667 17.5167C27.2742 16.572 27.0922 15.6354 26.7316 14.7623C26.3709 13.8892 25.8388 13.0973 25.1667 12.4333C24.5062 11.7576 23.7185 11.2192 22.8491 10.8491C21.9797 10.479 21.0456 10.2845 20.1007 10.2767C19.1558 10.269 18.2187 10.4482 17.3433 10.804C16.468 11.1598 15.6716 11.6852 15 12.35ZM22.8167 20.15C22.1851 20.7912 21.3504 21.1932 20.4553 21.2871C19.5601 21.381 18.6602 21.1611 17.9092 20.6649C17.1583 20.1687 16.603 19.4271 16.3384 18.5668C16.0737 17.7065 16.1161 16.7811 16.4583 15.9486C16.8005 15.1161 17.4212 14.4284 18.2144 14.0029C19.0075 13.5774 19.9238 13.4407 20.8066 13.616C21.6894 13.7914 22.4839 14.2679 23.0542 14.9642C23.6246 15.6605 23.9353 16.5333 23.9334 17.4333C23.9091 18.4621 23.4775 19.4392 22.7334 20.15H22.8167Z" fill="#0061FF"/>
</svg>
