<svg width="20" height="20" viewBox="0 0 20 20" fill="none" xmlns="http://www.w3.org/2000/svg">
<path d="M16.1996 10.8334C16.0163 10.8334 15.8246 10.7751 15.6413 10.7334C15.27 10.6516 14.9052 10.543 14.5496 10.4084C14.163 10.2678 13.7381 10.2751 13.3565 10.4289C12.975 10.5828 12.6638 10.8723 12.4829 11.2418L12.2996 11.6168C11.4879 11.1652 10.7421 10.6045 10.0829 9.95009C9.42857 9.29094 8.86778 8.54509 8.41626 7.73343L8.76626 7.50009C9.13573 7.31919 9.42525 7.00804 9.57909 6.6265C9.73293 6.24497 9.74024 5.82002 9.5996 5.43343C9.46728 5.07711 9.35871 4.71243 9.2746 4.34176C9.23293 4.15843 9.1996 3.96676 9.1746 3.77509C9.0734 3.18811 8.76595 2.65655 8.30761 2.27613C7.84928 1.89571 7.27018 1.69143 6.6746 1.70009H4.1746C3.81546 1.69672 3.4598 1.77077 3.13185 1.9172C2.8039 2.06363 2.51135 2.27901 2.27412 2.54866C2.03689 2.81832 1.86054 3.13592 1.75709 3.47986C1.65363 3.82379 1.6255 4.18598 1.6746 4.54176C2.11854 8.03291 3.71295 11.2767 6.20597 13.7606C8.69899 16.2446 11.9485 17.8272 15.4413 18.2584H15.7579C16.3724 18.2593 16.9658 18.0339 17.4246 17.6251C17.6882 17.3893 17.8988 17.1002 18.0425 16.777C18.1861 16.4538 18.2596 16.1038 18.2579 15.7501V13.2501C18.2477 12.6712 18.0369 12.1139 17.6615 11.6731C17.2862 11.2324 16.7694 10.9356 16.1996 10.8334ZM16.6163 15.8334C16.6161 15.9517 16.5908 16.0687 16.5419 16.1764C16.4931 16.2842 16.4218 16.3803 16.3329 16.4584C16.2398 16.5388 16.1309 16.5989 16.0133 16.6348C15.8956 16.6706 15.7717 16.6815 15.6496 16.6668C12.5287 16.2666 9.62979 14.8388 7.41019 12.6087C5.19059 10.3785 3.7766 7.47287 3.39126 4.35009C3.378 4.22803 3.38962 4.10454 3.42543 3.98709C3.46124 3.86964 3.52049 3.76067 3.5996 3.66676C3.67769 3.57787 3.77381 3.50663 3.88158 3.45777C3.98934 3.40892 4.10628 3.38358 4.2246 3.38343H6.7246C6.91838 3.37911 7.10761 3.44249 7.25972 3.56265C7.41182 3.68281 7.51727 3.85224 7.55793 4.04176C7.59126 4.26954 7.63293 4.49454 7.68293 4.71676C7.7792 5.15605 7.90731 5.58774 8.06626 6.00843L6.8996 6.55009C6.79984 6.59586 6.71011 6.66088 6.63556 6.74142C6.56101 6.82196 6.5031 6.91644 6.46515 7.01942C6.42721 7.12241 6.40999 7.23187 6.41447 7.34153C6.41895 7.45119 6.44505 7.55888 6.49126 7.65843C7.6906 10.2274 9.75563 12.2924 12.3246 13.4918C12.5275 13.5751 12.755 13.5751 12.9579 13.4918C13.0619 13.4546 13.1574 13.3971 13.2389 13.3228C13.3204 13.2484 13.3864 13.1585 13.4329 13.0584L13.9496 11.8918C14.3804 12.0458 14.8201 12.1738 15.2663 12.2751C15.4885 12.3251 15.7135 12.3668 15.9413 12.4001C16.1308 12.4408 16.3002 12.5462 16.4204 12.6983C16.5405 12.8504 16.6039 13.0396 16.5996 13.2334L16.6163 15.8334Z" fill="#262B35"/>
</svg>
